<svg xmlns="http://www.w3.org/2000/svg" xmlns:xlink="http://www.w3.org/1999/xlink" width="377" zoomAndPan="magnify" viewBox="0 0 283.5 141.749996" height="188" preserveAspectRatio="xMidYMid meet" version="1.0"><defs><g/><clipPath id="58b2cfae1c"><path d="M 41.410156 0 L 61.21875 0 L 61.21875 68.464844 L 41.410156 68.464844 Z M 41.410156 0 " clip-rule="nonzero"/></clipPath><clipPath id="26c2dceb6d"><path d="M 219.519531 0 L 238.929688 0 L 238.929688 65.035156 L 219.519531 65.035156 Z M 219.519531 0 " clip-rule="nonzero"/></clipPath><clipPath id="30c95f1afc"><path d="M 219.515625 48.417969 L 270.539062 48.417969 L 270.539062 68.113281 L 219.515625 68.113281 Z M 219.515625 48.417969 " clip-rule="nonzero"/></clipPath><clipPath id="f074a010ab"><path d="M 263.472656 48.417969 L 219.515625 48.417969 L 219.515625 68.113281 L 270.539062 68.113281 L 263.472656 48.417969 " clip-rule="nonzero"/></clipPath><clipPath id="6ea7bb48be"><path d="M 29.664062 0 L 238.929688 0 L 238.929688 18.691406 L 29.664062 18.691406 Z M 29.664062 0 " clip-rule="nonzero"/></clipPath><clipPath id="ad041a52ef"><path d="M 12.648438 0 L 46.675781 0 L 46.675781 19.714844 L 12.648438 19.714844 Z M 12.648438 0 " clip-rule="nonzero"/></clipPath><clipPath id="a6158d7671"><path d="M 29.664062 -4.882812 L 46.675781 19.714844 L 12.648438 19.714844 L 29.664062 -4.882812 " clip-rule="nonzero"/></clipPath></defs><g clip-path="url(#58b2cfae1c)"><path fill="#ff1616" d="M 41.410156 -3.917969 L 61.21875 -3.917969 L 61.21875 68.464844 L 41.410156 68.464844 Z M 41.410156 -3.917969 " fill-opacity="1" fill-rule="nonzero"/></g><g clip-path="url(#26c2dceb6d)"><path fill="#ff1616" d="M 219.519531 -4.882812 L 238.929688 -4.882812 L 238.929688 65.035156 L 219.519531 65.035156 Z M 219.519531 -4.882812 " fill-opacity="1" fill-rule="nonzero"/></g><g clip-path="url(#30c95f1afc)"><g clip-path="url(#f074a010ab)"><path fill="#ff1616" d="M 270.539062 48.417969 L 270.539062 68.113281 L 219.515625 68.113281 L 219.515625 48.417969 Z M 270.539062 48.417969 " fill-opacity="1" fill-rule="nonzero"/></g></g><g clip-path="url(#6ea7bb48be)"><path fill="#ff1616" d="M 29.664062 -5.226562 L 238.929688 -5.226562 L 238.929688 18.691406 L 29.664062 18.691406 Z M 29.664062 -5.226562 " fill-opacity="1" fill-rule="nonzero"/></g><g clip-path="url(#ad041a52ef)"><g clip-path="url(#a6158d7671)"><path fill="#ff1616" d="M 12.648438 -4.882812 L 46.675781 -4.882812 L 46.675781 19.714844 L 12.648438 19.714844 Z M 12.648438 -4.882812 " fill-opacity="1" fill-rule="nonzero"/></g></g><g fill="#000000" fill-opacity="1"><g transform="translate(63.842331, 63.683257)"><g><path d="M 13.90625 -21.484375 L 11.921875 -15.09375 L 18.546875 -15.09375 L 16.5625 -21.484375 C 16.445312 -21.742188 16.328125 -21.925781 16.203125 -22.03125 C 16.078125 -22.144531 15.929688 -22.203125 15.765625 -22.203125 L 14.703125 -22.203125 C 14.535156 -22.203125 14.390625 -22.144531 14.265625 -22.03125 C 14.140625 -21.925781 14.019531 -21.742188 13.90625 -21.484375 Z M 11.5 -1.515625 C 11.5 -0.984375 11.378906 -0.597656 11.140625 -0.359375 C 10.898438 -0.117188 10.515625 0 9.984375 0 L 3.796875 0 C 3.253906 0 2.863281 -0.117188 2.625 -0.359375 C 2.394531 -0.597656 2.28125 -0.984375 2.28125 -1.515625 L 2.28125 -12.640625 C 2.28125 -13.484375 2.410156 -14.453125 2.671875 -15.546875 C 2.941406 -16.640625 3.359375 -17.921875 3.921875 -19.390625 L 7.578125 -28.953125 C 7.753906 -29.429688 8.015625 -29.78125 8.359375 -30 C 8.710938 -30.226562 9.171875 -30.34375 9.734375 -30.34375 L 21.078125 -30.34375 C 21.609375 -30.34375 22.046875 -30.226562 22.390625 -30 C 22.742188 -29.78125 23.003906 -29.429688 23.171875 -28.953125 L 26.84375 -19.390625 C 27.40625 -17.921875 27.816406 -16.640625 28.078125 -15.546875 C 28.347656 -14.453125 28.484375 -13.484375 28.484375 -12.640625 L 28.484375 -1.515625 C 28.484375 -0.984375 28.363281 -0.597656 28.125 -0.359375 C 27.882812 -0.117188 27.5 0 26.96875 0 L 20.609375 0 C 20.046875 0 19.628906 -0.117188 19.359375 -0.359375 C 19.097656 -0.597656 18.96875 -0.984375 18.96875 -1.515625 L 18.96875 -7.421875 L 11.5 -7.421875 Z M 11.5 -1.515625 "/></g></g></g><g fill="#000000" fill-opacity="1"><g transform="translate(94.591998, 63.683257)"><g><path d="M 28.734375 -7.96875 C 28.734375 -6.675781 28.546875 -5.5 28.171875 -4.4375 C 27.796875 -3.382812 27.117188 -2.484375 26.140625 -1.734375 C 25.171875 -0.992188 23.84375 -0.414062 22.15625 0 C 20.476562 0.414062 18.332031 0.625 15.71875 0.625 C 13.101562 0.625 10.953125 0.414062 9.265625 0 C 7.585938 -0.414062 6.257812 -0.992188 5.28125 -1.734375 C 4.3125 -2.484375 3.640625 -3.382812 3.265625 -4.4375 C 2.890625 -5.5 2.703125 -6.675781 2.703125 -7.96875 L 2.703125 -28.828125 C 2.703125 -29.359375 2.816406 -29.742188 3.046875 -29.984375 C 3.285156 -30.222656 3.675781 -30.34375 4.21875 -30.34375 L 10.828125 -30.34375 C 11.359375 -30.34375 11.742188 -30.222656 11.984375 -29.984375 C 12.222656 -29.742188 12.34375 -29.359375 12.34375 -28.828125 L 12.34375 -9.609375 C 12.34375 -9.046875 12.550781 -8.570312 12.96875 -8.1875 C 13.394531 -7.8125 14.335938 -7.625 15.796875 -7.625 C 17.285156 -7.625 18.238281 -7.8125 18.65625 -8.1875 C 19.082031 -8.570312 19.296875 -9.046875 19.296875 -9.609375 L 19.296875 -28.828125 C 19.296875 -29.359375 19.414062 -29.742188 19.65625 -29.984375 C 19.894531 -30.222656 20.28125 -30.34375 20.8125 -30.34375 L 27.21875 -30.34375 C 27.757812 -30.34375 28.144531 -30.222656 28.375 -29.984375 C 28.613281 -29.742188 28.734375 -29.359375 28.734375 -28.828125 Z M 28.734375 -7.96875 "/></g></g></g><g fill="#000000" fill-opacity="1"><g transform="translate(126.015634, 63.683257)"><g><path d="M 18.625 0 L 4.421875 0 C 3.890625 0 3.503906 -0.117188 3.265625 -0.359375 C 3.023438 -0.597656 2.90625 -0.984375 2.90625 -1.515625 L 2.90625 -28.828125 C 2.90625 -29.359375 3.023438 -29.742188 3.265625 -29.984375 C 3.503906 -30.222656 3.890625 -30.34375 4.421875 -30.34375 L 18.625 -30.34375 C 22.132812 -30.34375 24.738281 -29.640625 26.4375 -28.234375 C 28.144531 -26.828125 29 -24.664062 29 -21.75 L 29 -8.59375 C 29 -5.675781 28.144531 -3.515625 26.4375 -2.109375 C 24.738281 -0.703125 22.132812 0 18.625 0 Z M 12.46875 -22.296875 L 12.46875 -7.96875 L 17.484375 -7.96875 C 18.160156 -7.96875 18.660156 -8.132812 18.984375 -8.46875 C 19.304688 -8.800781 19.46875 -9.320312 19.46875 -10.03125 L 19.46875 -20.265625 C 19.46875 -20.972656 19.304688 -21.488281 18.984375 -21.8125 C 18.660156 -22.132812 18.160156 -22.296875 17.484375 -22.296875 Z M 12.46875 -22.296875 "/></g></g></g><g fill="#000000" fill-opacity="1"><g transform="translate(157.43927, 63.683257)"><g><path d="M 3.75 0 C 3.21875 0 2.832031 -0.117188 2.59375 -0.359375 C 2.351562 -0.597656 2.234375 -0.984375 2.234375 -1.515625 L 2.234375 -6.53125 C 2.234375 -7.0625 2.351562 -7.445312 2.59375 -7.6875 C 2.832031 -7.925781 3.21875 -8.046875 3.75 -8.046875 L 7.921875 -8.046875 L 7.921875 -22.203125 L 3.75 -22.203125 C 3.21875 -22.203125 2.832031 -22.320312 2.59375 -22.5625 C 2.351562 -22.800781 2.234375 -23.1875 2.234375 -23.71875 L 2.234375 -28.828125 C 2.234375 -29.359375 2.351562 -29.742188 2.59375 -29.984375 C 2.832031 -30.222656 3.21875 -30.34375 3.75 -30.34375 L 21.703125 -30.34375 C 22.234375 -30.34375 22.617188 -30.222656 22.859375 -29.984375 C 23.097656 -29.742188 23.21875 -29.359375 23.21875 -28.828125 L 23.21875 -23.71875 C 23.21875 -23.1875 23.097656 -22.800781 22.859375 -22.5625 C 22.617188 -22.320312 22.234375 -22.203125 21.703125 -22.203125 L 17.609375 -22.203125 L 17.609375 -8.046875 L 21.703125 -8.046875 C 22.234375 -8.046875 22.617188 -7.925781 22.859375 -7.6875 C 23.097656 -7.445312 23.21875 -7.0625 23.21875 -6.53125 L 23.21875 -1.515625 C 23.21875 -0.984375 23.097656 -0.597656 22.859375 -0.359375 C 22.617188 -0.117188 22.234375 0 21.703125 0 Z M 3.75 0 "/></g></g></g><g fill="#000000" fill-opacity="1"><g transform="translate(182.923589, 63.683257)"><g><path d="M 28.609375 -7.96875 C 28.609375 -6.675781 28.414062 -5.5 28.03125 -4.4375 C 27.65625 -3.382812 26.984375 -2.484375 26.015625 -1.734375 C 25.046875 -0.992188 23.710938 -0.414062 22.015625 0 C 20.316406 0.414062 18.160156 0.625 15.546875 0.625 C 12.929688 0.625 10.765625 0.414062 9.046875 0 C 7.335938 -0.414062 6 -0.992188 5.03125 -1.734375 C 4.0625 -2.484375 3.382812 -3.382812 3 -4.4375 C 2.625 -5.5 2.4375 -6.675781 2.4375 -7.96875 L 2.4375 -22.328125 C 2.4375 -23.617188 2.625 -24.789062 3 -25.84375 C 3.382812 -26.90625 4.0625 -27.8125 5.03125 -28.5625 C 6 -29.320312 7.335938 -29.910156 9.046875 -30.328125 C 10.765625 -30.753906 12.929688 -30.96875 15.546875 -30.96875 C 18.160156 -30.96875 20.316406 -30.753906 22.015625 -30.328125 C 23.710938 -29.910156 25.046875 -29.320312 26.015625 -28.5625 C 26.984375 -27.8125 27.65625 -26.90625 28.03125 -25.84375 C 28.414062 -24.789062 28.609375 -23.617188 28.609375 -22.328125 Z M 12.015625 -9.484375 C 12.015625 -8.921875 12.222656 -8.445312 12.640625 -8.0625 C 13.066406 -7.6875 14.035156 -7.5 15.546875 -7.5 C 17.066406 -7.5 18.035156 -7.6875 18.453125 -8.0625 C 18.878906 -8.445312 19.09375 -8.921875 19.09375 -9.484375 L 19.09375 -20.8125 C 19.09375 -21.351562 18.878906 -21.8125 18.453125 -22.1875 C 18.035156 -22.5625 17.066406 -22.75 15.546875 -22.75 C 14.035156 -22.75 13.066406 -22.5625 12.640625 -22.1875 C 12.222656 -21.8125 12.015625 -21.351562 12.015625 -20.8125 Z M 12.015625 -9.484375 "/></g></g></g><g fill="#000000" fill-opacity="1"><g transform="translate(10.883181, 97.190883)"><g><path d="M 25.6875 -19.828125 C 24.851562 -19.828125 24.4375 -19.289062 24.4375 -18.21875 L 24.4375 -4.96875 C 24.4375 -3.726562 24.765625 -2.820312 25.421875 -2.25 C 26.078125 -1.6875 26.9375 -1.40625 28 -1.40625 L 31.96875 -1.40625 L 31.96875 0 L 4.15625 0 L 4.15625 -1.40625 L 8.109375 -1.40625 C 9.179688 -1.40625 10.035156 -1.6875 10.671875 -2.25 C 11.316406 -2.820312 11.640625 -3.726562 11.640625 -4.96875 L 11.640625 -18.21875 C 11.640625 -19.289062 11.238281 -19.828125 10.4375 -19.828125 C 10.0625 -19.828125 9.539062 -19.550781 8.875 -19 C 8.21875 -18.457031 7.550781 -17.804688 6.875 -17.046875 C 5.519531 -15.515625 4.363281 -14.085938 3.40625 -12.765625 L 2.8125 -11.9375 L 2.15625 -11.9375 L 2.15625 -21.265625 L 34.515625 -21.265625 L 34.515625 -11.9375 L 33.28125 -11.9375 C 32.925781 -12.4375 32.3125 -13.242188 31.4375 -14.359375 C 30.570312 -15.472656 29.828125 -16.378906 29.203125 -17.078125 C 28.578125 -17.773438 27.925781 -18.40625 27.25 -18.96875 C 26.570312 -19.539062 26.050781 -19.828125 25.6875 -19.828125 Z M 16 -1.40625 L 16 -19.859375 L 13.875 -19.859375 L 13.875 -1.40625 Z M 16 -1.40625 "/></g></g></g><g fill="#000000" fill-opacity="1"><g transform="translate(47.003834, 97.190883)"><g><path d="M 46.140625 -1.40625 L 46.140625 0 L 21.5625 0 L 21.5625 -1.40625 L 23.984375 -1.40625 C 24.546875 -1.40625 25.003906 -1.53125 25.359375 -1.78125 C 25.722656 -2.03125 25.90625 -2.40625 25.90625 -2.90625 C 25.90625 -3.414062 25.59375 -4.0625 24.96875 -4.84375 L 23.75 -6.34375 L 9.265625 -6.34375 C 8.628906 -5.363281 8.3125 -4.5 8.3125 -3.75 C 8.3125 -3 8.539062 -2.421875 9 -2.015625 C 9.457031 -1.609375 10.046875 -1.40625 10.765625 -1.40625 L 13.8125 -1.40625 L 13.8125 0 L -0.453125 0 L -0.453125 -1.40625 C 0.222656 -1.40625 0.929688 -1.570312 1.671875 -1.90625 C 2.410156 -2.25 3.0625 -2.660156 3.625 -3.140625 C 4.195312 -3.617188 4.722656 -4.109375 5.203125 -4.609375 C 5.679688 -5.109375 6.046875 -5.519531 6.296875 -5.84375 C 6.546875 -6.175781 6.671875 -6.351562 6.671875 -6.375 L 15.078125 -17.078125 L 14.265625 -18.09375 C 13.742188 -18.726562 13.191406 -19.179688 12.609375 -19.453125 C 12.035156 -19.722656 11.242188 -19.859375 10.234375 -19.859375 L 7.65625 -19.859375 L 7.65625 -21.265625 L 26.375 -21.265625 L 42.40625 -1.40625 Z M 10.5 -7.921875 L 22.515625 -7.921875 L 16.359375 -15.515625 Z M 30.359375 -1.40625 L 32.875 -1.40625 L 18 -19.859375 L 15.46875 -19.859375 Z M 27.90625 -24.609375 L 27.90625 -23.421875 L 26.140625 -23.421875 C 20.253906 -23.421875 16.457031 -23.617188 14.75 -24.015625 C 13.207031 -24.359375 12.050781 -24.988281 11.28125 -25.90625 C 10.5625 -26.738281 10.140625 -27.394531 10.015625 -27.875 L 9.90625 -28.203125 L 19.4375 -28.203125 C 20.332031 -26.941406 21.375 -26.023438 22.5625 -25.453125 C 23.75 -24.890625 25.53125 -24.609375 27.90625 -24.609375 Z M 17.703125 -24.703125 L 17.703125 -24.828125 C 17.085938 -25.023438 16.445312 -25.347656 15.78125 -25.796875 C 15.113281 -26.242188 14.648438 -26.738281 14.390625 -27.28125 L 12.296875 -27.28125 C 13.390625 -25.695312 15.191406 -24.835938 17.703125 -24.703125 Z M 17.703125 -24.703125 "/></g></g></g><g fill="#000000" fill-opacity="1"><g transform="translate(92.710841, 97.190883)"><g><path d="M 22.703125 -16.265625 L 22.703125 -4.9375 C 22.703125 -3.71875 23.03125 -2.820312 23.6875 -2.25 C 24.34375 -1.6875 25.203125 -1.40625 26.265625 -1.40625 L 30.234375 -1.40625 L 30.234375 0 L 2.390625 0 L 2.390625 -1.40625 L 6.375 -1.40625 C 7.445312 -1.40625 8.3125 -1.6875 8.96875 -2.25 C 9.625 -2.820312 9.953125 -3.71875 9.953125 -4.9375 L 9.953125 -16.265625 C 9.953125 -17.242188 9.601562 -18.085938 8.90625 -18.796875 C 8.207031 -19.503906 7.363281 -19.859375 6.375 -19.859375 L 2.390625 -19.859375 L 2.390625 -21.265625 L 30.234375 -21.265625 L 30.234375 -19.859375 L 26.265625 -19.859375 C 25.285156 -19.859375 24.445312 -19.503906 23.75 -18.796875 C 23.050781 -18.085938 22.703125 -17.242188 22.703125 -16.265625 Z M 14.265625 -1.40625 L 14.265625 -19.859375 L 12.140625 -19.859375 L 12.140625 -1.40625 Z M 14.265625 -1.40625 "/></g></g></g><g fill="#000000" fill-opacity="1"><g transform="translate(125.526974, 97.190883)"><g><path d="M 20.9375 -11.21875 L 20.9375 -8.609375 L 3.265625 -8.609375 L 3.265625 -11.21875 Z M 20.9375 -11.21875 "/></g></g></g><g fill="#000000" fill-opacity="1"><g transform="translate(149.738283, 97.190883)"><g><path d="M 22.640625 -16.265625 L 22.640625 -4.9375 C 22.640625 -2.582031 23.828125 -1.40625 26.203125 -1.40625 C 28.035156 -1.40625 30.03125 -1.90625 32.1875 -2.90625 C 33.34375 -3.457031 34.539062 -4.285156 35.78125 -5.390625 C 37.03125 -6.503906 38.210938 -7.847656 39.328125 -9.421875 L 40.4375 -9.421875 L 40.4375 0 L 2.390625 0 L 2.390625 -1.40625 L 6.3125 -1.40625 C 7.382812 -1.40625 8.238281 -1.679688 8.875 -2.234375 C 9.519531 -2.796875 9.84375 -3.695312 9.84375 -4.9375 L 9.84375 -16.265625 C 9.84375 -17.242188 9.5 -18.085938 8.8125 -18.796875 C 8.125 -19.503906 7.289062 -19.859375 6.3125 -19.859375 L 2.390625 -19.859375 L 2.390625 -21.265625 L 31.671875 -21.265625 L 31.671875 -19.859375 L 26.203125 -19.859375 C 25.222656 -19.859375 24.382812 -19.503906 23.6875 -18.796875 C 22.988281 -18.085938 22.640625 -17.242188 22.640625 -16.265625 Z M 14.203125 -1.40625 L 14.203125 -19.859375 L 12.078125 -19.859375 L 12.078125 -1.40625 Z M 14.203125 -1.40625 "/></g></g></g><g fill="#000000" fill-opacity="1"><g transform="translate(190.603047, 97.190883)"><g><path d="M 43.25 -10.640625 C 43.25 -8.585938 42.300781 -6.6875 40.40625 -4.9375 C 38.507812 -3.195312 35.929688 -1.816406 32.671875 -0.796875 C 29.410156 0.210938 25.847656 0.71875 21.984375 0.71875 C 18.128906 0.71875 14.566406 0.210938 11.296875 -0.796875 C 8.035156 -1.816406 5.457031 -3.195312 3.5625 -4.9375 C 1.664062 -6.6875 0.71875 -8.585938 0.71875 -10.640625 C 0.71875 -13.835938 2.671875 -16.515625 6.578125 -18.671875 C 10.484375 -20.835938 15.617188 -21.921875 21.984375 -21.921875 C 28.359375 -21.921875 33.492188 -20.835938 37.390625 -18.671875 C 41.296875 -16.515625 43.25 -13.835938 43.25 -10.640625 Z M 28.765625 -10.75 C 28.765625 -14.113281 28.273438 -16.59375 27.296875 -18.1875 C 26.328125 -19.78125 24.5625 -20.578125 22 -20.578125 C 19.4375 -20.578125 17.664062 -19.773438 16.6875 -18.171875 C 15.707031 -16.566406 15.21875 -14.085938 15.21875 -10.734375 C 15.21875 -7.390625 15.804688 -4.867188 16.984375 -3.171875 C 18.160156 -1.472656 19.828125 -0.625 21.984375 -0.625 C 24.140625 -0.625 25.804688 -1.472656 26.984375 -3.171875 C 28.171875 -4.867188 28.765625 -7.394531 28.765625 -10.75 Z M 6.96875 -5.28125 C 5.570312 -6.90625 4.875 -8.6875 4.875 -10.625 C 4.875 -12.570312 5.585938 -14.363281 7.015625 -16 C 8.441406 -17.632812 10.347656 -18.921875 12.734375 -19.859375 L 12.6875 -19.984375 C 9.59375 -19.066406 7.117188 -17.773438 5.265625 -16.109375 C 3.410156 -14.441406 2.484375 -12.613281 2.484375 -10.625 C 2.484375 -8.644531 3.394531 -6.832031 5.21875 -5.1875 C 7.039062 -3.539062 9.488281 -2.25 12.5625 -1.3125 L 12.59375 -1.4375 C 10.238281 -2.375 8.363281 -3.65625 6.96875 -5.28125 Z M 32.75 -5.671875 C 33.488281 -7.273438 33.859375 -8.925781 33.859375 -10.625 C 33.859375 -12.332031 33.488281 -13.988281 32.75 -15.59375 C 32.007812 -17.195312 31.003906 -18.578125 29.734375 -19.734375 L 29.546875 -19.65625 C 30.785156 -16.582031 31.40625 -13.570312 31.40625 -10.625 C 31.40625 -7.6875 30.785156 -4.679688 29.546875 -1.609375 L 29.734375 -1.53125 C 31.003906 -2.6875 32.007812 -4.066406 32.75 -5.671875 Z M 16.71875 -28.203125 L 27.3125 -28.203125 L 31.671875 -23.421875 L 28.828125 -23.421875 L 25.453125 -27.09375 L 22.046875 -23.421875 L 12.328125 -23.421875 Z M 20.453125 -27.390625 L 18.421875 -27.390625 L 15.96875 -24.671875 L 18 -24.671875 Z M 20.453125 -27.390625 "/></g></g></g><g fill="#000000" fill-opacity="1"><g transform="translate(234.608726, 97.190883)"><g><path d="M 21.796875 0.71875 C 15.941406 0.71875 11.03125 -0.175781 7.0625 -1.96875 C 5.082031 -2.832031 3.53125 -4.015625 2.40625 -5.515625 C 1.28125 -7.023438 0.71875 -8.757812 0.71875 -10.71875 C 0.71875 -12.6875 1.316406 -14.425781 2.515625 -15.9375 C 3.710938 -17.457031 5.296875 -18.644531 7.265625 -19.5 C 11.234375 -21.195312 15.679688 -22.046875 20.609375 -22.046875 C 23.992188 -22.046875 27.910156 -21.238281 32.359375 -19.625 L 32.359375 -21.265625 L 33.921875 -21.265625 L 33.921875 -13.453125 L 32.359375 -13.453125 C 31.421875 -15.210938 29.800781 -16.84375 27.5 -18.34375 C 25.195312 -19.851562 22.847656 -20.609375 20.453125 -20.609375 C 18.660156 -20.609375 17.390625 -20.1875 16.640625 -19.34375 C 15.890625 -18.507812 15.515625 -17.351562 15.515625 -15.875 L 15.515625 -6.90625 C 15.515625 -4.675781 15.988281 -3.078125 16.9375 -2.109375 C 17.882812 -1.140625 19.421875 -0.65625 21.546875 -0.65625 C 23.671875 -0.65625 25.554688 -0.859375 27.203125 -1.265625 C 28.847656 -1.679688 30.109375 -2.144531 30.984375 -2.65625 C 31.859375 -3.175781 32.644531 -3.640625 33.34375 -4.046875 C 34.039062 -4.460938 34.488281 -4.671875 34.6875 -4.671875 C 35.207031 -4.671875 35.46875 -4.457031 35.46875 -4.03125 C 35.46875 -3.414062 34.332031 -2.53125 32.0625 -1.375 C 29.226562 0.0195312 25.804688 0.71875 21.796875 0.71875 Z M 11.6875 -2.09375 C 9.695312 -2.945312 8.078125 -4.078125 6.828125 -5.484375 C 5.585938 -6.890625 4.96875 -8.59375 4.96875 -10.59375 C 4.96875 -12.601562 5.585938 -14.378906 6.828125 -15.921875 C 8.078125 -17.472656 9.695312 -18.707031 11.6875 -19.625 L 11.640625 -19.796875 C 8.984375 -19.054688 6.820312 -17.832031 5.15625 -16.125 C 3.488281 -14.425781 2.65625 -12.582031 2.65625 -10.59375 C 2.65625 -8.613281 3.484375 -6.847656 5.140625 -5.296875 C 6.796875 -3.753906 8.960938 -2.632812 11.640625 -1.9375 Z M 11.6875 -2.09375 "/></g></g></g><g fill="#000000" fill-opacity="1"><g transform="translate(207.03615, 104.475337)"><g><path d="M 5.5 0.296875 C 4.71875 0.296875 4.054688 0.078125 3.515625 -0.359375 C 2.972656 -0.796875 2.703125 -1.578125 2.703125 -2.703125 C 2.703125 -3.847656 2.972656 -4.632812 3.515625 -5.0625 C 4.054688 -5.488281 4.71875 -5.703125 5.5 -5.703125 C 6.25 -5.703125 6.90625 -5.488281 7.46875 -5.0625 C 8.03125 -4.632812 8.3125 -3.847656 8.3125 -2.703125 C 8.3125 -1.578125 8.03125 -0.796875 7.46875 -0.359375 C 6.90625 0.078125 6.25 0.296875 5.5 0.296875 Z M 5.5 0.296875 "/></g></g></g></svg>